<?xml version="1.0" standalone="no"?>
<!DOCTYPE svg PUBLIC "-//W3C//DTD SVG 20010904//EN"
 "http://www.w3.org/TR/2001/REC-SVG-20010904/DTD/svg10.dtd">
<svg version="1.0" xmlns="http://www.w3.org/2000/svg"
 width="300.000000pt" height="169.000000pt" viewBox="0 0 300.000000 169.000000"
 preserveAspectRatio="xMidYMid meet">
<metadata>
Created by potrace 1.10, written by Peter Selinger 2001-2011
</metadata>
<g transform="translate(0.000000,169.000000) scale(0.100000,-0.100000)"
fill="#3e29e0" stroke="none">
<path d="M1360 1595 c-249 -46 -470 -226 -566 -464 -57 -141 -69 -342 -29
-486 70 -258 276 -461 541 -537 107 -30 275 -30 385 0 260 71 459 262 539 517
30 95 38 273 17 372 -33 153 -97 272 -207 383 -181 183 -427 261 -680 215z
m330 -40 c162 -43 305 -147 418 -304 18 -25 32 -51 32 -58 0 -7 5 -13 10 -13
6 0 10 -5 10 -12 0 -6 9 -30 20 -52 65 -136 65 -369 0 -543 -39 -103 -195
-300 -252 -319 -10 -3 -18 -9 -18 -13 0 -14 -162 -89 -231 -107 -97 -26 -273
-24 -372 4 -85 24 -156 57 -227 105 -52 35 -172 158 -191 196 -8 14 -17 28
-20 31 -4 3 -18 28 -32 57 -65 128 -89 307 -61 455 8 44 19 88 23 97 5 9 28
56 52 105 96 195 315 355 529 386 81 12 236 5 310 -15z"/>
<path d="M1410 1150 c-106 -23 -230 -109 -230 -162 0 -32 46 -85 79 -93 24 -5
39 1 82 34 48 37 116 61 167 61 38 0 94 -23 151 -61 75 -50 106 -43 155 32 22
35 9 63 -50 108 -94 72 -239 105 -354 81z m261 -58 c69 -34 129 -83 129 -105
0 -7 -15 -28 -34 -46 l-35 -34 -44 37 c-62 50 -111 69 -187 69 -76 0 -125 -19
-188 -70 l-44 -36 -40 40 -40 40 34 32 c84 81 168 112 294 108 79 -2 99 -7
155 -35z"/>
<path d="M1067 902 c-35 -24 -56 -52 -57 -76 0 -23 39 -77 92 -124 59 -53 118
-114 118 -121 0 -3 20 -17 44 -30 51 -28 45 -31 156 72 41 37 78 67 82 67 5 0
35 -26 66 -58 31 -32 72 -69 91 -82 33 -23 34 -23 66 -6 17 10 85 71 150 136
136 137 143 153 80 207 -57 49 -74 44 -170 -48 -96 -93 -79 -93 -180 5 -33 32
-72 63 -88 68 -33 12 -44 5 -137 -81 -36 -34 -72 -61 -81 -61 -8 0 -46 31 -85
69 -78 78 -106 90 -147 63z m143 -97 l94 -94 93 92 c52 51 98 92 103 92 5 0
51 -41 103 -92 l94 -91 94 94 c51 52 98 94 103 94 14 0 76 -62 76 -75 0 -6
-61 -71 -135 -145 l-136 -134 -99 99 -100 100 -100 -100 -99 -99 -136 134
c-74 74 -135 139 -135 144 0 14 61 76 75 76 6 0 53 -43 105 -95z"/>
</g>
</svg>
